<svg width="474" height="426" viewBox="0 0 474 426" fill="none" xmlns="http://www.w3.org/2000/svg">
<path d="M227.292 42.5233H75.6978V213.716H227.292V42.5233Z" fill="#E0E0E0"/>
<path d="M222.714 47.4224H81.2437V208.825H222.714V47.4224Z" fill="#FAFAFA"/>
<path d="M81.2437 166.234H109.703L113.362 181.289H125.714L136.237 138.484H171.446V109.295H197.061V158.063H222.714V208.834H81.2437V166.234Z" fill="#F5F5F5"/>
<path d="M154.23 47.4224H149.661V207.496H154.23V47.4224Z" fill="#E0E0E0"/>
<path d="M222.714 125.619H81.2437V129.828H222.714V125.619Z" fill="#E0E0E0"/>
<path d="M371.275 88.1649L380.376 109.082L374.716 109.064L370.185 96.2078L371.275 88.1649Z" fill="#E0E0E0"/>
<path d="M340.208 68.8331L337.08 108.92L369.369 109.525L373 68.8331H340.208Z" fill="#EBEBEB"/>
<path d="M343.432 72.0622L340.835 105.426L364.838 106.44L368.194 71.8662L343.432 72.0622Z" fill="#FAFAFA"/>
<path d="M348.703 76.7822L346.75 100.229H359.994L362.335 76.7822H348.703Z" fill="#E0E0E0"/>
<path d="M369.172 300.137V267.173H396.029V300.111L369.172 300.137Z" fill="#455A64"/>
<path d="M384.443 267.173C384.443 267.173 390.918 224.624 389.108 224.684C387.297 224.743 382.737 263.475 382.737 263.475C382.737 263.475 382.547 231.397 380.841 231.568C379.135 231.738 380.841 265.528 380.841 265.528C380.841 265.528 377.921 238.103 376.347 238.759C374.774 239.415 377.02 267.173 377.02 267.173H384.453" fill="#00975F"/>
<path d="M379.562 267.173C379.562 267.173 381.808 245.967 382.548 247.415C383.287 248.863 382.548 260.042 382.548 260.042C382.548 260.042 388.814 232.65 390.397 233.561C391.98 234.473 384.074 263.322 384.074 263.322C384.074 263.322 390.141 246.87 391.478 248.608C392.815 250.346 386.444 265.776 386.444 265.776C386.444 265.776 392.957 254.861 393.402 256.327C393.848 257.792 390.293 267.181 390.293 267.181L379.562 267.173Z" fill="#00B170"/>
<path d="M375.732 267.301C375.732 267.301 361.379 241.971 363.152 242.755C364.924 243.538 374.111 259.914 374.111 259.914C374.111 259.914 368.034 244.118 369.371 243.632C370.707 243.146 377.362 261.379 377.362 261.379L378.86 267.343L375.732 267.301Z" fill="#00B170"/>
<path opacity="0.3" d="M381.609 267.232L382.282 300.188H369.512L369.266 267.122L381.609 267.232Z" fill="#263238"/>
<path d="M369.2 270.087L381.572 270.274L396.029 270.087L396.484 266.934H368.85L369.2 270.087Z" fill="#263238"/>
<path d="M403.44 108.698H269.146V113.998H403.44V108.698Z" fill="#E0E0E0"/>
<path d="M294.317 299.666C293.179 298.532 295.862 291.912 308.593 291.444C321.325 290.975 326.425 295.141 326.444 299.666C326.454 301.668 294.317 299.666 294.317 299.666Z" fill="#455A64"/>
<path d="M288.031 126.471L273.887 205.085H403.061L418.627 125.627L288.031 126.471Z" fill="#F5F5F5"/>
<path d="M286.741 133.619C286.798 133.347 417.148 133.176 417.148 133.176L418.627 125.627L288.03 126.479L286.741 133.636" fill="#E0E0E0"/>
<path d="M293.491 130.007C293.493 130.221 293.424 130.431 293.293 130.61C293.162 130.789 292.974 130.929 292.754 131.012C292.534 131.096 292.292 131.118 292.058 131.077C291.824 131.037 291.608 130.934 291.439 130.783C291.27 130.632 291.154 130.44 291.107 130.229C291.06 130.019 291.083 129.801 291.174 129.603C291.265 129.405 291.419 129.235 291.617 129.116C291.815 128.997 292.048 128.933 292.287 128.933C292.445 128.932 292.601 128.959 292.747 129.012C292.893 129.066 293.026 129.145 293.138 129.245C293.25 129.344 293.338 129.463 293.399 129.594C293.46 129.725 293.491 129.865 293.491 130.007Z" fill="#263238"/>
<path d="M299.369 130.007C299.369 130.219 299.299 130.427 299.168 130.603C299.037 130.78 298.85 130.917 298.632 130.999C298.414 131.08 298.174 131.101 297.942 131.06C297.71 131.018 297.497 130.916 297.33 130.766C297.163 130.616 297.05 130.424 297.003 130.216C296.957 130.008 296.981 129.792 297.071 129.596C297.162 129.4 297.315 129.232 297.511 129.114C297.708 128.996 297.939 128.933 298.175 128.933C298.492 128.933 298.796 129.046 299.02 129.248C299.244 129.449 299.369 129.722 299.369 130.007Z" fill="#263238"/>
<path d="M305.256 130.007C305.257 130.221 305.188 130.431 305.057 130.61C304.926 130.789 304.739 130.929 304.519 131.012C304.299 131.096 304.057 131.118 303.823 131.077C303.588 131.037 303.373 130.934 303.204 130.783C303.034 130.632 302.919 130.44 302.871 130.229C302.824 130.019 302.848 129.801 302.938 129.603C303.029 129.405 303.184 129.235 303.382 129.116C303.58 128.997 303.813 128.933 304.052 128.933C304.209 128.932 304.366 128.959 304.512 129.012C304.658 129.066 304.79 129.145 304.902 129.245C305.014 129.344 305.103 129.463 305.164 129.594C305.224 129.725 305.256 129.865 305.256 130.007Z" fill="#263238"/>
<path opacity="0.2" d="M319.846 168.935L303.682 185.736C300.63 183.875 298.123 181.38 296.372 178.463C294.621 175.545 293.678 172.292 293.624 168.977C293.624 157.296 305.465 147.677 319.846 147.677C334.227 147.677 346.067 157.288 346.067 168.977L319.846 168.935Z" fill="#2E51C3"/>
<path d="M321.922 171.601C321.843 171.72 321.751 171.832 321.647 171.934L320.803 172.837L317.599 176.245C314.812 179.176 310.849 183.316 306.1 188.301V188.028C309.681 190.243 313.818 191.625 318.14 192.049C323.018 192.555 327.959 191.885 332.454 190.107C336.745 188.432 340.45 185.744 343.176 182.328C344.405 180.735 345.39 179.002 346.106 177.174C346.73 175.466 347.109 173.694 347.234 171.9L347.442 172.096L328.956 171.814L323.761 171.712L322.387 171.67C322.226 171.683 322.064 171.683 321.903 171.67C322.054 171.656 322.207 171.656 322.358 171.67H323.714H328.88L347.442 171.78H347.67V171.985C347.562 173.819 347.186 175.632 346.551 177.378C345.831 179.245 344.833 181.017 343.584 182.643C340.807 186.15 337.013 188.906 332.616 190.61C328.037 192.41 323.009 193.086 318.045 192.569C313.65 192.121 309.447 190.698 305.816 188.428L305.626 188.309L305.778 188.147L317.476 176.16L320.747 172.837L321.619 171.985C321.707 171.849 321.809 171.721 321.922 171.601Z" fill="#263238"/>
<path d="M330.994 157.603C331.805 157.603 332.463 157.012 332.463 156.282C332.463 155.553 331.805 154.962 330.994 154.962C330.182 154.962 329.524 155.553 329.524 156.282C329.524 157.012 330.182 157.603 330.994 157.603Z" fill="#263238"/>
<path d="M361.652 146.621C361.195 146.685 360.732 146.713 360.268 146.706L356.476 146.774C353.301 146.774 348.892 146.842 344.067 146.842H341.754L341.925 146.783C338.882 149.509 336.17 151.895 334.208 153.599L331.885 155.592C331.62 155.851 331.321 156.08 330.994 156.274C331.224 155.99 331.481 155.725 331.762 155.482C332.34 154.928 333.089 154.229 333.98 153.394C335.876 151.631 338.55 149.194 341.564 146.45L341.631 146.391H344.124C348.968 146.391 353.357 146.391 356.533 146.45L360.325 146.527C360.77 146.521 361.214 146.552 361.652 146.621Z" fill="#263238"/>
<path d="M394.946 163.218C394.952 163.066 394.974 162.914 395.012 162.766C395.069 162.459 395.145 162.042 395.249 161.505L396.197 156.742L399.62 139.651L399.819 139.864L363.103 139.907L363.34 139.728V139.813V139.915V140.111L363.254 140.503L363.093 141.296L362.771 142.863C362.553 143.903 362.344 144.934 362.126 145.956C361.709 148.001 361.295 150.012 360.884 151.988C360.06 155.925 359.273 159.656 358.543 163.243L358.315 163.005L384.764 163.098L392.348 163.158H394.368H394.889H395.079H394.917H394.415H392.434L384.926 163.209L358.382 163.303H358.116L358.164 163.064C358.894 159.511 359.661 155.737 360.477 151.792C360.875 149.824 361.292 147.814 361.709 145.769C361.927 144.738 362.136 143.707 362.354 142.667C362.458 142.148 362.562 141.628 362.676 141.1L362.837 140.316L362.913 139.924L362.96 139.72V139.626V139.549L363.207 139.362L399.923 139.404H400.056L400.008 139.617C398.491 146.749 397.24 152.636 396.368 156.768C395.922 158.787 395.581 160.372 395.335 161.488L395.06 162.706C394.984 163.09 394.946 163.226 394.946 163.218Z" fill="#263238"/>
<path d="M333.298 184.168C334.109 184.168 334.767 183.577 334.767 182.848C334.767 182.118 334.109 181.527 333.298 181.527C332.486 181.527 331.828 182.118 331.828 182.848C331.828 183.577 332.486 184.168 333.298 184.168Z" fill="#263238"/>
<path d="M359.975 182.848C359.975 182.976 354.002 183.069 346.636 183.069C339.27 183.069 333.298 182.976 333.298 182.848C333.298 182.72 339.27 182.626 346.636 182.626C354.002 182.626 359.975 182.728 359.975 182.848Z" fill="#263238"/>
<path d="M394.947 193.14C394.959 193.031 394.981 192.922 395.013 192.816C395.07 192.586 395.146 192.279 395.25 191.896C395.468 191.044 395.781 189.911 396.198 188.428C397.023 185.412 398.198 181.11 399.649 175.819L399.829 176.023L361.966 176.074L362.203 175.913V175.964V176.032V176.177L362.118 176.466L361.956 177.029L361.644 178.17C361.425 178.92 361.217 179.67 361.008 180.42L359.662 184.884C358.847 187.772 358.06 190.567 357.302 193.234L357.084 192.978L384.244 193.072L392.093 193.123H394.198H394.748H394.947H394.776H394.245H392.188L384.377 193.174L357.084 193.268H356.78L356.856 193.004C357.605 190.337 358.382 187.534 359.188 184.646C359.593 183.197 360.007 181.729 360.43 180.241L361.056 177.991L361.378 176.858L361.539 176.287L361.615 175.998V175.861V175.785V175.734L361.852 175.563L399.715 175.623H400.057L400 175.827C398.464 181.144 397.222 185.463 396.35 188.488C395.914 189.945 395.572 191.095 395.335 191.896C395.222 192.262 395.136 192.552 395.07 192.748C395.004 192.944 394.947 193.149 394.947 193.14Z" fill="#263238"/>
<path d="M391.96 146.919C391.96 147.047 386.338 147.14 379.399 147.14C372.46 147.14 366.838 147.047 366.838 146.919C366.838 146.791 372.46 146.697 379.399 146.697C386.338 146.697 391.96 146.8 391.96 146.919Z" fill="#263238"/>
<path d="M391.666 150.617C391.666 150.744 385.978 150.838 379.039 150.838C372.1 150.838 366.402 150.744 366.402 150.617C366.402 150.489 372.09 150.395 379.039 150.395C385.988 150.395 391.666 150.497 391.666 150.617Z" fill="#263238"/>
<path d="M390.936 154.212C390.936 154.331 385.475 154.433 378.745 154.433C372.014 154.433 366.544 154.331 366.544 154.212C366.544 154.093 372.004 153.99 378.745 153.99C385.485 153.99 390.936 154.059 390.936 154.212Z" fill="#263238"/>
<path d="M391.372 182.439C391.372 182.558 386.016 182.66 379.399 182.66C372.782 182.66 367.426 182.558 367.426 182.439C367.426 182.32 372.791 182.217 379.399 182.217C386.007 182.217 391.372 182.328 391.372 182.439Z" fill="#263238"/>
<path d="M389.903 186.528C389.903 186.656 385.334 186.75 379.693 186.75C374.053 186.75 369.483 186.656 369.483 186.528C369.483 186.401 374.053 186.307 379.693 186.307C385.334 186.307 389.903 186.409 389.903 186.528Z" fill="#263238"/>
<path d="M237.322 272.129C236.867 274.523 224.221 299.674 232.383 299.674H273.413C273.413 299.674 269.175 296.096 282.001 272.129H237.322Z" fill="#455A64"/>
<path d="M210.778 188.181L194.008 276.261H335.459L352.808 185.089L210.778 188.181Z" fill="#455A64"/>
<path d="M215.585 192.475L201.45 271.098H330.615L346.181 191.64L215.585 192.475Z" fill="#FAFAFA"/>
<path d="M216.688 206.284L212 233H254.837L260 206L216.688 206.284Z" fill="#CDD4EB"/>
<path d="M289.688 238.284L285 265H327.837L333 238L289.688 238.284Z" fill="#CDD4EB"/>
<path d="M295.688 207.284L291 234H333.837L339 207L295.688 207.284Z" fill="#CDD4EB"/>
<path d="M352.808 185.089L355.481 186.707L337.469 278.655H197.743L194.008 276.261H335.459L352.808 185.089Z" fill="#263238"/>
<path d="M214 202.192C214.047 201.814 344.52 201.596 344.52 201.596L346 191.43L215.281 192.578L214 202.215" fill="#EBEBEB"/>
<path d="M220.408 196.998C220.41 197.212 220.341 197.422 220.21 197.601C220.078 197.78 219.891 197.92 219.671 198.003C219.451 198.087 219.209 198.109 218.975 198.068C218.741 198.028 218.525 197.925 218.356 197.774C218.187 197.623 218.071 197.43 218.024 197.22C217.977 197.01 218 196.792 218.091 196.594C218.182 196.396 218.336 196.226 218.534 196.107C218.732 195.988 218.965 195.924 219.204 195.924C219.522 195.924 219.826 196.037 220.052 196.238C220.277 196.439 220.405 196.712 220.408 196.998Z" fill="#263238"/>
<path d="M223.558 198.15C224.217 198.15 224.752 197.67 224.752 197.077C224.752 196.484 224.217 196.003 223.558 196.003C222.898 196.003 222.363 196.484 222.363 197.077C222.363 197.67 222.898 198.15 223.558 198.15Z" fill="#263238"/>
<path d="M228.771 197.077C228.773 197.292 228.704 197.502 228.572 197.681C228.441 197.86 228.253 198 228.032 198.083C227.812 198.166 227.569 198.188 227.335 198.147C227.1 198.105 226.885 198.002 226.716 197.85C226.547 197.699 226.432 197.505 226.386 197.294C226.34 197.084 226.364 196.865 226.457 196.667C226.549 196.469 226.705 196.3 226.904 196.182C227.104 196.064 227.338 196.002 227.577 196.003C227.893 196.006 228.195 196.119 228.419 196.32C228.642 196.521 228.769 196.793 228.771 197.077Z" fill="#263238"/>
<path d="M301.449 243.019C301.252 243.942 300.437 244.603 299.492 244.603H249.414C248.16 244.603 247.216 243.463 247.449 242.231L249.782 229.907C249.961 228.962 250.786 228.279 251.747 228.279H302.112C303.384 228.279 304.333 229.45 304.068 230.694L301.449 243.019Z" fill="#2E51C3"/>
<path d="M405.858 305.314H251.694V386.16H405.858V305.314Z" fill="#EEEEEE"/>
<path d="M321.922 305.314H251.694V386.16H321.922V305.314Z" fill="#C7C7C7"/>
<path d="M314.736 332.774C314.736 332.774 314.736 332.629 314.736 332.365C314.736 332.101 314.736 331.692 314.736 331.19C314.736 330.142 314.736 328.634 314.689 326.7C314.689 322.814 314.642 317.217 314.594 310.316L314.774 310.477L258.283 310.537C258.065 310.742 258.577 310.273 258.529 310.324V316.169C258.529 318.103 258.529 320.011 258.529 321.886C258.529 325.643 258.529 329.29 258.529 332.774L258.302 332.57L298.791 332.664L310.537 332.723H313.684H314.509H314.793C314.708 332.731 314.622 332.731 314.537 332.723H313.741H310.641L298.952 332.783L258.302 332.885H258.065V332.672C258.065 329.187 258.065 325.541 258.065 321.783V310.324C258.008 310.324 258.529 309.898 258.311 310.094L314.736 310.128H314.916V310.281C314.916 317.225 314.841 322.848 314.822 326.768C314.822 328.685 314.822 330.176 314.774 331.215C314.774 331.701 314.774 332.067 314.774 332.365C314.773 332.502 314.76 332.639 314.736 332.774Z" fill="#263238"/>
<path d="M288.923 321.545C288.923 321.545 288.866 321.357 288.752 321.042C288.594 320.606 288.285 320.227 287.87 319.96C287.572 319.766 287.223 319.641 286.858 319.598C286.492 319.555 286.12 319.594 285.775 319.713C285.359 319.853 285 320.103 284.746 320.431C284.493 320.76 284.357 321.15 284.357 321.549C284.357 321.949 284.493 322.338 284.746 322.667C285 322.995 285.359 323.245 285.775 323.385C286.121 323.499 286.492 323.536 286.857 323.493C287.222 323.45 287.569 323.328 287.87 323.138C288.285 322.871 288.594 322.492 288.752 322.056C288.866 321.741 288.875 321.545 288.923 321.545C288.97 321.545 288.998 321.741 288.923 322.099C288.813 322.605 288.507 323.061 288.06 323.385C287.721 323.632 287.318 323.798 286.888 323.865C286.458 323.932 286.016 323.899 285.605 323.768C285.093 323.607 284.649 323.307 284.335 322.91C284.021 322.512 283.853 322.037 283.853 321.549C283.853 321.061 284.021 320.586 284.335 320.188C284.649 319.791 285.093 319.491 285.605 319.33C286.016 319.201 286.457 319.167 286.886 319.233C287.315 319.298 287.719 319.461 288.06 319.704C288.509 320.031 288.814 320.49 288.923 320.999C288.998 321.357 288.951 321.553 288.923 321.545Z" fill="#263238"/>
<path d="M314.736 357.499C314.736 357.499 314.736 357.354 314.736 357.09C314.736 356.826 314.736 356.409 314.736 355.906C314.736 354.858 314.736 353.35 314.688 351.424C314.688 347.531 314.641 341.942 314.594 335.04L314.774 335.202L258.283 335.262L258.529 335.04V340.877C258.529 342.811 258.529 344.711 258.529 346.594C258.529 350.351 258.529 353.989 258.529 357.482L258.301 357.269L298.791 357.371L310.536 357.431H313.684H314.508C314.603 357.424 314.698 357.424 314.793 357.431H314.537H313.74H310.641L298.952 357.491L258.301 357.593H258.064V357.38C258.064 353.887 258.064 350.249 258.064 346.491V335.057L258.311 334.836L314.802 334.896H314.982V335.057C314.982 342.001 314.907 347.624 314.888 351.535C314.888 353.452 314.888 354.943 314.84 355.991C314.84 356.477 314.84 356.843 314.84 357.133C314.814 357.257 314.779 357.379 314.736 357.499Z" fill="#263238"/>
<path d="M288.923 346.27C288.923 346.27 288.866 346.074 288.752 345.759C288.594 345.323 288.285 344.944 287.87 344.677C287.569 344.486 287.222 344.364 286.857 344.321C286.492 344.278 286.121 344.315 285.775 344.43C285.359 344.569 285 344.82 284.746 345.148C284.493 345.476 284.357 345.866 284.357 346.266C284.357 346.665 284.493 347.055 284.746 347.383C285 347.711 285.359 347.962 285.775 348.102C286.119 348.219 286.491 348.259 286.856 348.217C287.221 348.176 287.57 348.054 287.87 347.863C288.287 347.595 288.597 347.212 288.752 346.773C288.866 346.457 288.875 346.27 288.923 346.27C288.97 346.27 288.998 346.466 288.923 346.815C288.816 347.325 288.51 347.785 288.06 348.11C287.72 348.356 287.316 348.52 286.887 348.585C286.457 348.651 286.015 348.616 285.605 348.485C285.093 348.324 284.649 348.024 284.335 347.626C284.021 347.229 283.853 346.753 283.853 346.266C283.853 345.778 284.021 345.303 284.335 344.905C284.649 344.507 285.093 344.207 285.605 344.046C286.016 343.916 286.458 343.883 286.888 343.95C287.318 344.017 287.721 344.182 288.06 344.43C288.51 344.755 288.816 345.214 288.923 345.725C288.998 346.074 288.951 346.27 288.923 346.27Z" fill="#263238"/>
<path d="M314.736 382.216C314.736 382.216 314.736 382.071 314.736 381.807C314.736 381.543 314.736 381.134 314.736 380.631C314.736 379.583 314.736 378.075 314.689 376.141C314.689 372.256 314.642 366.658 314.594 359.757L314.774 359.919L258.283 359.978C258.065 360.183 258.577 359.714 258.529 359.765V365.61C258.529 367.544 258.529 369.453 258.529 371.327C258.529 375.084 258.529 378.731 258.529 382.216L258.302 382.011L298.791 382.105L310.537 382.165H313.684H314.509H314.793C314.708 382.173 314.622 382.173 314.537 382.165H313.741H310.641L298.952 382.216L258.302 382.318H258.065V382.105C258.065 378.62 258.065 374.974 258.065 371.216V359.765C258.008 359.808 258.529 359.339 258.311 359.535L314.803 359.604H314.983V359.757C314.983 366.701 314.907 372.332 314.888 376.243C314.888 378.16 314.888 379.651 314.841 380.691C314.841 381.185 314.841 381.543 314.841 381.841C314.815 381.968 314.781 382.093 314.736 382.216Z" fill="#263238"/>
<path d="M288.923 370.986C288.923 370.986 288.866 370.799 288.752 370.484C288.594 370.048 288.285 369.669 287.87 369.402C287.57 369.209 287.222 369.086 286.857 369.043C286.492 369 286.12 369.038 285.775 369.155C285.359 369.294 285 369.545 284.746 369.873C284.493 370.201 284.357 370.591 284.357 370.991C284.357 371.39 284.493 371.78 284.746 372.108C285 372.436 285.359 372.687 285.775 372.827C286.12 372.943 286.492 372.981 286.857 372.938C287.222 372.895 287.57 372.772 287.87 372.58C288.285 372.312 288.594 371.933 288.752 371.498C288.866 371.182 288.875 370.986 288.923 370.986C288.97 370.986 288.998 371.182 288.923 371.54C288.812 372.049 288.507 372.507 288.06 372.835C287.719 373.079 287.315 373.241 286.886 373.307C286.457 373.372 286.016 373.339 285.605 373.21C285.093 373.049 284.649 372.749 284.335 372.351C284.021 371.954 283.853 371.478 283.853 370.991C283.853 370.503 284.021 370.028 284.335 369.63C284.649 369.232 285.093 368.932 285.605 368.771C286.016 368.642 286.457 368.609 286.886 368.675C287.315 368.74 287.719 368.902 288.06 369.146C288.509 369.473 288.814 369.931 288.923 370.441C288.998 370.799 288.951 370.995 288.923 370.986Z" fill="#263238"/>
<path d="M175.665 305.314H45.9878V386.16H175.665V305.314Z" fill="#EEEEEE"/>
<path d="M411.442 299.674H41.0107V307.359H411.442V299.674Z" fill="#B7B7B7"/>
<path d="M57.4776 307.359H45.9878V386.16H57.4776V307.359Z" fill="#C7C7C7"/>
<path d="M259.42 237.718C259.002 238.275 258.464 238.711 257.808 239.027C257.154 239.34 256.446 239.499 255.686 239.504C255.154 239.508 254.747 239.413 254.464 239.22C254.186 239.024 254.052 238.746 254.061 238.384C254.07 238.023 254.222 237.602 254.516 237.122L254.824 236.635C255.134 236.143 255.52 235.709 255.979 235.332C256.439 234.956 256.941 234.665 257.485 234.459C258.032 234.253 258.579 234.149 259.126 234.145C259.862 234.14 260.356 234.293 260.607 234.603C260.859 234.912 260.841 235.353 260.554 235.923L259.399 235.93C259.581 235.556 259.611 235.287 259.489 235.124C259.371 234.958 259.096 234.876 258.662 234.879C258.158 234.883 257.678 235.03 257.224 235.32C256.774 235.609 256.37 236.031 256.013 236.588L255.721 237.05C255.365 237.613 255.221 238.042 255.291 238.337C255.364 238.631 255.649 238.777 256.147 238.774C256.602 238.771 256.995 238.688 257.325 238.527C257.656 238.365 257.969 238.098 258.265 237.725L259.42 237.718Z" fill="white"/>
<path d="M260.465 239.402L259.352 239.409L262.827 233.907L263.941 233.899L260.465 239.402Z" fill="white"/>
<path d="M262.867 239.386L261.753 239.393L264.201 235.517L265.315 235.51L262.867 239.386ZM264.768 234.511C264.853 234.377 264.977 234.266 265.139 234.177C265.305 234.088 265.489 234.043 265.69 234.041C265.892 234.04 266.02 234.083 266.074 234.171C266.128 234.258 266.113 234.369 266.029 234.503C265.946 234.634 265.821 234.744 265.656 234.833C265.491 234.92 265.308 234.964 265.107 234.966C264.905 234.967 264.776 234.925 264.721 234.84C264.67 234.752 264.685 234.642 264.768 234.511Z" fill="white"/>
<path d="M266.515 238.741C266.793 238.74 267.063 238.675 267.327 238.547C267.59 238.419 267.787 238.262 267.916 238.076L268.966 238.069C268.801 238.31 268.563 238.536 268.25 238.748C267.938 238.957 267.59 239.123 267.204 239.247C266.818 239.371 266.447 239.434 266.089 239.436C265.396 239.441 264.957 239.269 264.772 238.92C264.588 238.572 264.691 238.089 265.081 237.47L265.138 237.38C265.51 236.791 266.01 236.318 266.637 235.962C267.265 235.603 267.927 235.422 268.624 235.417C269.213 235.413 269.608 235.545 269.807 235.812C270.011 236.077 269.984 236.428 269.726 236.865L268.677 236.872C268.805 236.65 268.822 236.468 268.73 236.326C268.64 236.184 268.454 236.114 268.173 236.116C267.813 236.118 267.47 236.222 267.145 236.429C266.821 236.633 266.526 236.943 266.261 237.359L266.172 237.499C265.907 237.919 265.805 238.232 265.866 238.439C265.932 238.643 266.148 238.744 266.515 238.741Z" fill="white"/>
<path d="M271.658 237.673L270.912 238.074L270.113 239.338L268.999 239.346L272.475 233.843L273.588 233.836L271.584 237.01L272.147 236.667L274.28 235.451L275.618 235.442L272.755 237.07L273.367 239.317L272.079 239.326L271.658 237.673Z" fill="white"/>
<path d="M281.644 239.263L280.489 239.27L281.953 236.953L278.97 236.972L277.506 239.29L276.346 239.298L279.641 234.082L280.8 234.074L279.429 236.245L282.413 236.226L283.784 234.055L284.939 234.047L281.644 239.263Z" fill="white"/>
<path d="M285.05 239.312C284.344 239.317 283.881 239.147 283.66 238.804C283.443 238.458 283.517 237.996 283.882 237.418L283.95 237.311C284.194 236.924 284.507 236.578 284.888 236.274C285.274 235.967 285.693 235.727 286.145 235.555C286.597 235.384 287.036 235.296 287.461 235.293C288.136 235.289 288.551 235.454 288.705 235.788C288.862 236.123 288.745 236.598 288.356 237.214L288.135 237.565L284.894 237.586C284.726 237.906 284.702 238.158 284.822 238.343C284.946 238.528 285.19 238.619 285.553 238.617C286.064 238.613 286.581 238.449 287.106 238.125L287.423 238.569C287.078 238.802 286.698 238.984 286.284 239.115C285.874 239.244 285.463 239.309 285.05 239.312ZM287.015 235.992C286.709 235.994 286.409 236.079 286.114 236.248C285.822 236.416 285.556 236.65 285.315 236.949L287.437 236.935L287.478 236.87C287.638 236.579 287.677 236.36 287.596 236.213C287.517 236.064 287.323 235.99 287.015 235.992Z" fill="white"/>
<path d="M292.495 236.124C292.361 236.106 292.216 236.097 292.06 236.098C291.55 236.101 291.109 236.257 290.739 236.563L289.065 239.214L287.951 239.222L290.399 235.346L291.462 235.339L291.216 235.772C291.698 235.433 292.177 235.263 292.653 235.259C292.812 235.258 292.933 235.274 293.016 235.307L292.495 236.124Z" fill="white"/>
<path d="M293.3 239.258C292.594 239.262 292.131 239.093 291.909 238.75C291.693 238.404 291.767 237.942 292.132 237.364L292.2 237.257C292.444 236.87 292.757 236.524 293.138 236.219C293.524 235.913 293.943 235.673 294.395 235.501C294.847 235.329 295.286 235.242 295.711 235.239C296.386 235.235 296.8 235.4 296.954 235.734C297.111 236.069 296.995 236.544 296.606 237.16L296.384 237.511L293.144 237.532C292.976 237.852 292.952 238.104 293.072 238.289C293.196 238.474 293.44 238.565 293.803 238.562C294.314 238.559 294.831 238.395 295.355 238.071L295.673 238.515C295.328 238.748 294.948 238.93 294.534 239.061C294.124 239.189 293.713 239.255 293.3 239.258ZM295.265 235.938C294.959 235.94 294.659 236.025 294.364 236.194C294.072 236.362 293.806 236.596 293.565 236.894L295.687 236.881L295.728 236.816C295.887 236.525 295.927 236.306 295.846 236.159C295.767 236.01 295.573 235.936 295.265 235.938Z" fill="white"/>
<path d="M190.008 178.068C189.931 177.745 189.878 177.418 189.846 177.088C189.709 176.213 189.387 175.368 188.898 174.6C188.582 174.086 188.099 173.67 187.514 173.408C187.185 173.28 186.82 173.244 186.468 173.303C186.115 173.362 185.79 173.514 185.533 173.74C184.435 174.965 183.836 176.491 183.836 178.064C183.836 179.637 184.435 181.163 185.533 182.388C185.788 182.615 186.113 182.768 186.466 182.829C186.819 182.89 187.184 182.855 187.514 182.728C188.098 182.46 188.58 182.042 188.898 181.527C189.387 180.759 189.709 179.915 189.846 179.039C189.877 178.713 189.931 178.388 190.008 178.068C190.069 178.398 190.069 178.735 190.008 179.065C189.944 179.982 189.663 180.877 189.183 181.689C188.84 182.274 188.308 182.753 187.657 183.061C187.271 183.227 186.837 183.283 186.415 183.223C185.973 183.145 185.562 182.966 185.22 182.703C183.997 181.409 183.325 179.766 183.325 178.068C183.325 176.37 183.997 174.727 185.22 173.433C185.559 173.164 185.971 172.982 186.415 172.905C186.837 172.848 187.269 172.905 187.657 173.067C188.308 173.375 188.84 173.853 189.183 174.439C189.664 175.253 189.946 176.151 190.008 177.071C190.068 177.401 190.068 177.738 190.008 178.068Z" fill="#263238"/>
<path d="M149.082 161.411L146.238 212.463L170.64 214.525L171.986 202.128C171.986 202.128 180.518 204.037 183.172 196.906C184.831 192.348 186.31 156.657 186.31 156.657L149.082 161.411Z" fill="#FFBE9D"/>
<path d="M191.496 161.923C189.42 166.362 181.589 170.17 181.589 170.17L180.309 181.476C179.145 181.404 177.976 181.404 176.811 181.476C177.437 176.168 169.843 177.216 169.066 180.82C168.327 184.296 172.735 186.622 172.735 186.622C169.692 190.814 168.459 193.029 164.137 196.957C159.472 201.217 156.96 201.558 152.135 201.43L146.817 201.208C146.817 201.208 144.921 197.127 143.546 187.491C142.873 182.856 138.806 176.782 139.991 169.241C143.252 147.831 169.616 151.63 169.616 151.63C179.513 144.712 196.387 151.486 191.496 161.923Z" fill="#263238"/>
<path d="M190.007 178.128C188.208 178.439 186.38 178.599 184.547 178.605C182.724 178.75 180.89 178.75 179.067 178.605C180.864 178.298 182.689 178.141 184.518 178.136C186.344 177.99 188.181 177.988 190.007 178.128Z" fill="#263238"/>
<path d="M267.744 238.1L258.88 243.033L255.628 249.849V243.885C255.628 243.885 258.036 241.329 260.008 239.463C261.98 237.597 260.567 236.302 260.008 235.663C259.449 235.024 250.964 243.885 250.964 243.885V248.997C247.011 244.626 245.181 246.126 244.575 246.918C243.968 247.711 250.964 253.641 250.964 253.641V255.447L216.201 272.248L207.053 251.8L188.368 260.618L199.526 284.892C200.295 286.571 201.457 288.082 202.934 289.322C204.41 290.562 206.166 291.502 208.082 292.078C209.998 292.654 212.03 292.853 214.039 292.661C216.049 292.47 217.989 291.892 219.728 290.967L258.405 270.416C259.868 269.639 261.115 268.511 262.034 267.132L263.354 265.151C263.522 264.901 263.683 264.64 263.841 264.372C265.411 261.715 266.914 258.927 267.699 255.942L268.427 253.178C268.806 251.737 269.434 250.373 270.282 249.148L272.937 245.313C273.287 244.807 273.353 244.156 273.112 243.59C272.79 242.835 271.871 242.542 271.171 242.972L269.5 244L269.437 243.561C269.232 242.125 267.613 241.379 266.388 242.156C268.872 240.758 267.744 238.1 267.744 238.1Z" fill="#FFBE9D"/>
<path d="M216.371 272.274C215.545 275.149 214.395 277.941 212.939 280.606C213.777 277.734 214.926 274.943 216.371 272.274Z" fill="#EB996E"/>
<path d="M266.388 242.156C265.865 242.398 265.327 242.614 264.777 242.803C264.149 243.07 263.589 243.45 263.131 243.919C262.673 244.388 262.326 244.936 262.113 245.529C261.404 247.245 260.542 248.906 259.534 250.497C260.09 248.745 260.8 247.035 261.658 245.385C261.935 244.687 262.374 244.051 262.947 243.519C263.438 243.109 264.006 242.78 264.625 242.547C265.172 242.298 265.775 242.164 266.388 242.156Z" fill="#EB996E"/>
<path d="M268.681 244.548C268.471 244.55 268.266 244.591 268.081 244.669C267.896 244.747 267.736 244.86 267.613 244.999C267.181 245.558 266.611 246.447 266.073 247.405C265.461 248.624 264.769 249.812 264 250.963C264.142 249.603 264.643 248.296 265.467 247.138C265.972 246.283 266.588 245.479 267.303 244.74C267.433 244.619 267.594 244.523 267.774 244.46C267.955 244.396 268.151 244.367 268.349 244.374C268.592 244.399 268.697 244.517 268.681 244.548Z" fill="#EB996E"/>
<path d="M182.784 257.509L186.756 269.598L211.963 259.374C211.015 256.818 206.882 245.563 198.909 227.671C196.726 222.766 193.175 218.447 188.598 215.132C184.02 211.816 178.571 209.615 172.773 208.74C164.525 207.505 155.548 206.542 148.637 206.619C141.776 206.676 135.144 208.848 129.851 212.771C124.557 216.694 120.922 222.132 119.552 228.174C117.419 237.674 121.154 243.953 118.746 264.742L117.979 317.029L185.287 319.253L182.784 257.509Z" fill="#2E51C3"/>
<path d="M121.874 264.188C121.874 264.188 112.518 264.682 108.839 258.318C108.839 258.318 118.917 224.834 122.434 220.89L121.874 264.188Z" fill="#2E51C3"/>
<path d="M200.18 231.045C199.939 231.213 199.67 231.345 199.383 231.437C198.559 231.706 197.691 231.853 196.814 231.872C195.436 231.866 194.064 231.708 192.728 231.403C191.174 231.088 189.439 230.619 187.495 230.33C186.483 230.22 185.463 230.171 184.443 230.185C183.339 230.263 182.245 230.426 181.172 230.67C178.792 231.252 176.507 232.111 174.375 233.226C172.071 234.351 169.73 235.68 167.237 236.992C164.678 238.419 161.938 239.563 159.074 240.4C156.132 241.22 152.99 241.264 150.021 240.528C147.328 239.745 144.818 238.523 142.617 236.924C140.503 235.45 138.664 233.9 136.929 232.485C135.347 231.16 133.668 229.93 131.905 228.805C129.394 227.118 126.467 226.001 123.373 225.55C122.23 225.492 121.084 225.492 119.941 225.55C120.22 225.448 120.514 225.379 120.813 225.345C121.672 225.223 122.543 225.185 123.411 225.235C126.606 225.568 129.654 226.63 132.265 228.319C134.086 229.424 135.816 230.645 137.441 231.974C139.204 233.371 141.062 234.888 143.129 236.302C145.254 237.815 147.666 238.97 150.248 239.71C153.05 240.389 156.009 240.338 158.78 239.565C161.565 238.747 164.234 237.641 166.734 236.268C169.208 234.982 171.569 233.652 173.92 232.528C176.131 231.399 178.5 230.539 180.964 229.972C182.091 229.73 183.239 229.576 184.395 229.512C185.465 229.522 186.532 229.596 187.59 229.733C189.6 230.074 191.316 230.585 192.842 230.943C194.13 231.277 195.457 231.477 196.795 231.54C197.945 231.534 199.087 231.367 200.18 231.045Z" fill="#263238"/>
<path d="M183.229 272.768C181.944 272.08 180.526 271.617 179.049 271.405C177.44 271.234 175.811 271.315 174.233 271.643C172.432 271.967 170.488 272.555 168.355 273.032C164.695 273.878 160.863 273.924 157.178 273.168C154.334 272.572 152.808 271.762 152.856 271.677C152.903 271.592 154.552 272.129 157.321 272.529C160.91 273.078 164.588 272.948 168.118 272.146C170.194 271.677 172.176 271.106 174.062 270.808C175.744 270.503 177.474 270.485 179.163 270.757C180.306 270.94 181.392 271.341 182.348 271.933C183.011 272.401 183.277 272.734 183.229 272.768Z" fill="#263238"/>
<path d="M183.911 303.985C183.911 303.985 183.655 304.369 183.02 304.905C182.103 305.66 181.076 306.299 179.968 306.805C178.305 307.581 176.466 308.001 174.593 308.032C172.306 307.976 170.053 307.525 167.957 306.703C165.748 305.928 163.729 305.059 161.823 304.573C160.139 304.111 158.376 303.926 156.619 304.028C155.445 304.091 154.3 304.382 153.263 304.88C152.523 305.246 152.182 305.544 152.116 305.485C152.049 305.425 152.343 305.067 153.064 304.633C154.091 303.963 155.292 303.541 156.552 303.406C158.402 303.212 160.275 303.342 162.07 303.789C164.197 304.383 166.285 305.083 168.326 305.885C170.303 306.663 172.419 307.116 174.574 307.223C176.323 307.229 178.053 306.895 179.645 306.243C182.442 305.11 183.817 303.857 183.911 303.985Z" fill="#263238"/>
<g opacity="0.3">
<path opacity="0.3" d="M110.916 264.776C119.732 266.395 128.786 264.776 137.763 264.282C143.214 263.992 149.253 263.43 153.557 266.472C156.97 268.857 158.297 272.87 159.33 276.653C163.122 291.086 163.776 303.977 164.62 318.776L121.012 317.924L110.916 264.776Z" fill="black"/>
</g>
<path opacity="0.3" d="M122.434 237.606L124.321 262.041H118.576L122.434 237.606Z" fill="black"/>
<path d="M134.682 316.995L221.235 319.747C227.989 319.961 234.38 322.547 239.035 326.95C243.69 331.354 246.237 337.223 246.129 343.296L245.371 387.439H213.632L211.584 349.38L134.682 347.556V316.995Z" fill="#263238"/>
<path d="M164 357.696H155V385.557H164V357.696Z" fill="#8390AB"/>
<path d="M203.962 352.472C203.844 352.199 203.768 351.912 203.734 351.62C203.611 351.067 203.45 350.266 203.26 349.226C202.872 347.139 202.312 344.114 201.706 340.4C201.364 338.542 201.089 336.472 200.634 334.316C200.511 333.78 200.397 333.234 200.274 332.672C200.151 332.11 199.914 331.581 199.734 331.019C199.639 330.746 199.554 330.457 199.459 330.167C199.364 329.877 199.222 329.613 199.099 329.315C198.843 328.753 198.615 328.182 198.34 327.611C197.137 325.278 195.614 323.088 193.809 321.093C191.837 318.974 189.542 317.115 186.993 315.572C184.454 314.011 181.667 312.804 178.726 311.994C175.997 311.215 173.161 310.779 170.298 310.699C164.781 310.588 159.757 310.614 155.566 310.563C151.376 310.511 147.982 310.469 145.631 310.418C144.456 310.418 143.546 310.367 142.92 310.332C142.601 310.341 142.283 310.313 141.972 310.247C142.282 310.176 142.601 310.144 142.92 310.154L145.631 310.068C147.973 310.017 151.376 309.975 155.566 309.932C159.757 309.889 164.753 309.813 170.327 309.881C173.278 309.938 176.205 310.371 179.02 311.167C182.059 311.985 184.938 313.224 187.552 314.84C190.186 316.424 192.549 318.344 194.567 320.539C196.415 322.603 197.966 324.867 199.184 327.279C199.459 327.858 199.686 328.455 199.942 329.025C200.056 329.315 200.179 329.596 200.303 329.877C200.426 330.159 200.483 330.457 200.578 330.729C200.758 331.309 200.928 331.871 201.099 332.433C201.27 332.996 201.336 333.567 201.45 334.137C201.876 336.344 202.104 338.397 202.398 340.255C202.938 343.995 203.346 347.028 203.64 349.124C203.772 350.172 203.877 350.99 203.933 351.544C203.995 351.85 204.004 352.163 203.962 352.472Z" fill="#455A64"/>
<path d="M83.7651 268.38V335.858C83.7677 340.107 85.6475 344.181 88.9913 347.185C92.3352 350.189 96.8693 351.876 101.597 351.876H151.595V268.38C151.592 266.486 150.753 264.67 149.262 263.331C147.77 261.992 145.749 261.24 143.641 261.24H91.7094C89.6024 261.24 87.5818 261.992 86.092 263.331C84.6021 264.67 83.7651 266.486 83.7651 268.38Z" fill="#C6D8FF"/>
<path d="M218.884 357.354H97.1226C97.1376 354.2 98.5425 351.179 101.03 348.953C103.517 346.727 106.884 345.478 110.395 345.478H205.716C209.221 345.478 212.582 346.729 215.061 348.956C217.539 351.184 218.931 354.204 218.931 357.354H218.884Z" fill="#C6D8FF"/>
<path d="M151.595 343.901C151.65 344.568 151.586 345.238 151.405 345.886C150.997 347.406 150.107 348.786 148.843 349.86C147.579 350.933 145.996 351.655 144.286 351.936C143.512 352.049 142.728 352.097 141.944 352.08H139.489H128.549H108.641L102.621 352.012H100.981C100.79 352.018 100.598 352.001 100.412 351.961C100.6 351.934 100.79 351.92 100.981 351.919L102.621 351.876L108.641 351.799L128.549 351.714H141.944C142.705 351.74 143.467 351.7 144.219 351.595C145.55 351.388 146.808 350.901 147.888 350.172C149.491 349.107 150.65 347.589 151.178 345.861C151.576 344.617 151.528 343.893 151.595 343.901Z" fill="#263238"/>
<path d="M166.914 357.584C164.436 357.809 161.943 357.883 159.454 357.806C156.961 357.883 154.465 357.809 151.983 357.584C154.465 357.365 156.961 357.291 159.454 357.363C161.943 357.291 164.435 357.365 166.914 357.584Z" fill="#C6D8FF"/>
<path d="M231.178 222.489L232.359 215.801C232.423 215.434 232.853 215.265 233.151 215.488L237.871 219.029C238.164 219.248 238.13 219.698 237.807 219.87L231.906 223.017C231.538 223.213 231.106 222.899 231.178 222.489Z" fill="#2E51C3"/>
<path d="M312.178 222.489L313.359 215.801C313.423 215.434 313.853 215.265 314.151 215.488L318.871 219.029C319.164 219.248 319.13 219.698 318.807 219.87L312.906 223.017C312.538 223.213 312.106 222.899 312.178 222.489Z" fill="#FAFAFA"/>
<path opacity="0.3" d="M305.178 255.489L306.359 248.801C306.423 248.434 306.853 248.265 307.151 248.488L311.871 252.029C312.164 252.248 312.13 252.698 311.807 252.87L305.906 256.017C305.538 256.213 305.106 255.899 305.178 255.489Z" fill="#2E51C3"/>
<path d="M50.3108 270.817C50.3108 270.817 48.775 274.676 51.7138 277.471H57.8284C57.8284 277.471 57.288 271.234 50.3108 270.817Z" fill="#00975F"/>
<path d="M60.7289 262.868C60.4729 262.595 55.24 269.956 58.1788 277.471H63.9426C63.9426 277.471 66.1989 268.729 60.7289 262.868Z" fill="#20BB82"/>
<path d="M70.9391 270.817C69.0549 270.93 67.2879 271.679 65.9909 272.912C64.6939 274.146 63.9625 275.774 63.9429 277.471H69.6972C69.6972 277.471 72.2189 274.284 70.9391 270.817Z" fill="#00975F"/>
<path d="M51.2387 277.181C49.2508 278.464 47.709 280.227 46.7927 282.266C45.8763 284.306 45.6232 286.537 46.0626 288.7C47.5415 296.368 56.5475 299.674 56.5475 299.674H66.5299C66.5299 299.674 76.6925 295.644 76.446 287.354C76.1995 279.064 70.1513 277.3 70.1513 277.3L51.2387 277.181Z" fill="#455A64"/>
<path d="M76.4089 286.425C76.1829 286.083 75.9054 285.771 75.5842 285.497C75.12 285.164 74.5868 284.917 74.0156 284.771C73.4443 284.624 72.8465 284.582 72.2567 284.645C70.4912 284.945 68.823 285.598 67.3745 286.553C66.4544 287.082 65.4798 287.53 64.4641 287.891C63.3435 288.274 62.1298 288.383 60.9471 288.206C58.5107 287.831 56.5673 286.655 54.7471 285.872C53.1984 285.059 51.4182 284.674 49.6279 284.764C48.431 284.875 47.3229 285.383 46.5185 286.187C46.2497 286.504 46.0208 286.847 45.8359 287.209C45.8423 287.102 45.8646 286.996 45.9023 286.894C46.0005 286.588 46.1578 286.299 46.3668 286.042C47.1617 285.146 48.3152 284.565 49.5805 284.423C51.4628 284.275 53.3501 284.653 54.9841 285.505C56.8801 286.289 58.7761 287.422 61.0608 287.763C62.1625 287.933 63.2948 287.836 64.3409 287.482C65.3321 287.135 66.2844 286.704 67.1849 286.195C68.6967 285.231 70.4354 284.592 72.2662 284.329C72.8977 284.274 73.5351 284.338 74.1375 284.517C74.74 284.696 75.2941 284.986 75.7643 285.369C76.0089 285.585 76.208 285.839 76.3521 286.119C76.3995 286.315 76.4279 286.417 76.4089 286.425Z" fill="#263238"/>
<path d="M76.5511 288.428C76.3237 288.091 76.0498 287.782 75.7359 287.507C75.2787 287.172 74.7506 286.924 74.1835 286.777C73.6165 286.631 73.0222 286.589 72.4368 286.655C70.6908 286.957 69.0421 287.606 67.6115 288.555C66.7153 289.087 65.7626 289.538 64.7675 289.902C63.6571 290.286 62.4522 290.395 61.2789 290.217C58.8615 289.842 56.937 288.666 55.1358 287.882C53.6109 287.071 51.8522 286.686 50.083 286.775C48.8938 286.891 47.7955 287.402 47.002 288.206C46.7372 288.519 46.5145 288.86 46.3384 289.22C46.3384 289.22 46.3384 289.109 46.3953 288.905C46.4978 288.615 46.6515 288.342 46.8503 288.095C47.6325 287.202 48.772 286.618 50.0261 286.468C51.8766 286.317 53.7339 286.683 55.3444 287.516C57.1835 288.3 59.1364 289.433 61.3547 289.774C62.4439 289.944 63.564 289.847 64.5969 289.493C65.5735 289.147 66.5101 288.716 67.3935 288.206C68.8875 287.241 70.611 286.602 72.4273 286.34C73.0454 286.29 73.6682 286.357 74.2559 286.536C74.8436 286.715 75.3832 287.002 75.8401 287.38C76.0804 287.594 76.2763 287.845 76.4184 288.121C76.4813 288.216 76.5261 288.319 76.5511 288.428Z" fill="#263238"/>
<path d="M50.6424 288.376C50.6424 288.325 50.9078 288.172 51.2586 288.428C51.3646 288.51 51.4403 288.619 51.4759 288.741C51.5114 288.862 51.5051 288.991 51.4576 289.109C51.3993 289.255 51.2899 289.38 51.1459 289.465C51.0019 289.55 50.831 289.591 50.6589 289.581C50.4869 289.572 50.3229 289.512 50.1917 289.412C50.0605 289.311 49.9692 289.175 49.9314 289.024C49.898 288.907 49.9007 288.784 49.9391 288.669C49.9775 288.553 50.0502 288.449 50.1494 288.368C50.4907 288.112 50.7846 288.232 50.7656 288.283C50.7466 288.334 50.557 288.376 50.4148 288.581C50.3841 288.632 50.3681 288.689 50.3681 288.747C50.3681 288.805 50.3841 288.862 50.4148 288.913C50.4426 288.973 50.4867 289.025 50.5431 289.065C50.5994 289.106 50.6662 289.132 50.7372 289.143C50.8072 289.141 50.8754 289.123 50.9351 289.09C50.9949 289.057 51.0443 289.011 51.0784 288.956C51.1102 288.908 51.127 288.854 51.127 288.798C51.127 288.743 51.1102 288.688 51.0784 288.641C50.8699 288.445 50.6518 288.436 50.6424 288.376Z" fill="#263238"/>
<path d="M61.952 285.139C61.952 285.088 62.2174 284.926 62.5777 285.19C62.6799 285.275 62.7523 285.384 62.786 285.505C62.8197 285.626 62.8132 285.754 62.7673 285.872C62.7074 286.016 62.5982 286.141 62.4552 286.226C62.3122 286.312 62.1427 286.355 61.9709 286.349C61.7996 286.334 61.6375 286.272 61.5068 286.172C61.3761 286.071 61.2832 285.936 61.241 285.786C61.2066 285.669 61.2097 285.545 61.2499 285.429C61.2902 285.313 61.3659 285.21 61.4685 285.13C61.8098 284.875 62.1037 284.994 62.0752 285.045C62.0468 285.096 61.8667 285.139 61.7245 285.343C61.696 285.395 61.6813 285.452 61.6813 285.51C61.6813 285.567 61.696 285.624 61.7245 285.676C61.7522 285.735 61.7964 285.788 61.8527 285.828C61.9091 285.868 61.9758 285.895 62.0468 285.906C62.117 285.904 62.1856 285.886 62.2455 285.853C62.3054 285.82 62.3546 285.774 62.3881 285.718C62.4208 285.671 62.4382 285.616 62.4382 285.561C62.4382 285.505 62.4208 285.45 62.3881 285.403C62.1795 285.207 61.9615 285.199 61.952 285.139Z" fill="#263238"/>
<path d="M72.9204 288.521C72.9204 288.47 73.1858 288.317 73.5461 288.572C73.6483 288.657 73.7208 288.767 73.7545 288.888C73.7882 289.009 73.7816 289.136 73.7357 289.254C73.6759 289.399 73.5666 289.523 73.4236 289.609C73.2806 289.694 73.1111 289.737 72.9394 289.731C72.7692 289.717 72.608 289.657 72.4774 289.557C72.3469 289.458 72.2533 289.326 72.2094 289.177C72.1753 289.059 72.1786 288.934 72.2187 288.816C72.2589 288.699 72.3344 288.594 72.4369 288.513C72.7782 288.257 73.0721 288.377 73.0436 288.428C73.0152 288.479 72.8351 288.53 72.6929 288.726C72.653 288.776 72.6283 288.835 72.6213 288.897C72.6143 288.958 72.6252 289.02 72.6529 289.077C72.6806 289.134 72.7242 289.183 72.7794 289.22C72.8346 289.257 72.8995 289.28 72.9678 289.288C73.038 289.287 73.1066 289.269 73.1665 289.236C73.2265 289.203 73.2757 289.156 73.3091 289.101C73.3419 289.053 73.3592 288.999 73.3592 288.943C73.3592 288.887 73.3419 288.833 73.3091 288.785C73.1479 288.598 72.9394 288.581 72.9204 288.521Z" fill="#263238"/>
<path d="M236.138 199.43L235.549 197.547C235.512 197.431 235.442 197.17 235.341 196.761H235.317C235.239 197.103 235.171 197.367 235.112 197.552L234.506 199.43H233.943L233.067 196.219H233.577C233.784 197.026 233.941 197.64 234.049 198.062C234.158 198.484 234.221 198.768 234.236 198.915H234.26C234.281 198.803 234.315 198.66 234.362 198.484C234.411 198.306 234.453 198.166 234.488 198.062L235.077 196.219H235.604L236.179 198.062C236.288 198.398 236.362 198.68 236.401 198.909H236.425C236.433 198.839 236.453 198.73 236.486 198.584C236.521 198.437 236.726 197.649 237.099 196.219H237.603L236.715 199.43H236.138ZM240.808 199.43L240.219 197.547C240.182 197.431 240.112 197.17 240.011 196.761H239.987C239.909 197.103 239.841 197.367 239.782 197.552L239.176 199.43H238.613L237.737 196.219H238.247C238.454 197.026 238.611 197.64 238.719 198.062C238.828 198.484 238.891 198.768 238.906 198.915H238.93C238.951 198.803 238.985 198.66 239.032 198.484C239.081 198.306 239.123 198.166 239.158 198.062L239.747 196.219H240.274L240.849 198.062C240.958 198.398 241.032 198.68 241.071 198.909H241.095C241.103 198.839 241.123 198.73 241.156 198.584C241.191 198.437 241.396 197.649 241.769 196.219H242.272L241.385 199.43H240.808ZM245.478 199.43L244.889 197.547C244.852 197.431 244.782 197.17 244.681 196.761H244.657C244.579 197.103 244.511 197.367 244.452 197.552L243.846 199.43H243.283L242.407 196.219H242.917C243.124 197.026 243.281 197.64 243.389 198.062C243.498 198.484 243.561 198.768 243.576 198.915H243.6C243.621 198.803 243.655 198.66 243.702 198.484C243.751 198.306 243.793 198.166 243.828 198.062L244.417 196.219H244.944L245.519 198.062C245.628 198.398 245.702 198.68 245.741 198.909H245.765C245.772 198.839 245.793 198.73 245.826 198.584C245.861 198.437 246.065 197.649 246.438 196.219H246.942L246.055 199.43H245.478ZM247.455 199.12C247.455 198.989 247.484 198.89 247.543 198.824C247.604 198.756 247.689 198.721 247.801 198.721C247.914 198.721 248.002 198.756 248.064 198.824C248.129 198.89 248.161 198.989 248.161 199.12C248.161 199.247 248.129 199.344 248.064 199.413C248 199.481 247.912 199.515 247.801 199.515C247.701 199.515 247.618 199.485 247.552 199.425C247.487 199.362 247.455 199.26 247.455 199.12ZM250.481 199.489C250.007 199.489 249.632 199.344 249.356 199.055C249.083 198.766 248.946 198.365 248.946 197.851C248.946 197.334 249.073 196.923 249.327 196.618C249.583 196.313 249.926 196.161 250.355 196.161C250.758 196.161 251.076 196.294 251.311 196.559C251.545 196.823 251.662 197.172 251.662 197.605V197.913H249.45C249.46 198.29 249.555 198.576 249.734 198.771C249.916 198.967 250.171 199.064 250.499 199.064C250.845 199.064 251.187 198.992 251.524 198.847V199.281C251.353 199.355 251.189 199.408 251.035 199.439C250.883 199.472 250.698 199.489 250.481 199.489ZM250.35 196.568C250.092 196.568 249.886 196.652 249.731 196.82C249.579 196.988 249.489 197.22 249.462 197.517H251.141C251.141 197.211 251.072 196.976 250.936 196.814C250.799 196.65 250.604 196.568 250.35 196.568ZM254.548 199.43H252.219V199.099L253.971 196.597H252.327V196.219H254.504V196.597L252.775 199.052H254.548V199.43ZM255.787 199.43H255.301V196.219H255.787V199.43ZM255.26 195.349C255.26 195.238 255.287 195.157 255.342 195.106C255.396 195.053 255.465 195.027 255.547 195.027C255.625 195.027 255.692 195.053 255.749 195.106C255.806 195.159 255.834 195.24 255.834 195.349C255.834 195.459 255.806 195.541 255.749 195.595C255.692 195.648 255.625 195.675 255.547 195.675C255.465 195.675 255.396 195.648 255.342 195.595C255.287 195.541 255.26 195.459 255.26 195.349ZM259.59 197.822C259.59 198.345 259.458 198.755 259.194 199.05C258.931 199.343 258.566 199.489 258.102 199.489C257.814 199.489 257.56 199.422 257.337 199.287C257.114 199.152 256.942 198.959 256.821 198.707C256.7 198.455 256.64 198.16 256.64 197.822C256.64 197.299 256.771 196.891 257.032 196.6C257.294 196.307 257.657 196.161 258.122 196.161C258.571 196.161 258.928 196.31 259.191 196.609C259.457 196.908 259.59 197.312 259.59 197.822ZM257.144 197.822C257.144 198.232 257.226 198.545 257.39 198.76C257.554 198.974 257.795 199.082 258.113 199.082C258.432 199.082 258.673 198.975 258.837 198.762C259.003 198.548 259.086 198.234 259.086 197.822C259.086 197.414 259.003 197.104 258.837 196.893C258.673 196.68 258.43 196.574 258.107 196.574C257.789 196.574 257.549 196.678 257.387 196.887C257.225 197.096 257.144 197.408 257.144 197.822ZM262.517 198.554C262.517 198.853 262.405 199.084 262.183 199.246C261.96 199.408 261.647 199.489 261.245 199.489C260.819 199.489 260.487 199.422 260.249 199.287V198.836C260.403 198.914 260.568 198.975 260.744 199.02C260.922 199.065 261.093 199.088 261.257 199.088C261.511 199.088 261.706 199.048 261.843 198.968C261.979 198.885 262.048 198.761 262.048 198.595C262.048 198.47 261.993 198.364 261.884 198.276C261.776 198.186 261.565 198.081 261.251 197.96C260.952 197.848 260.739 197.752 260.612 197.67C260.487 197.586 260.394 197.491 260.331 197.385C260.271 197.28 260.24 197.154 260.24 197.008C260.24 196.746 260.347 196.54 260.56 196.389C260.772 196.237 261.064 196.161 261.436 196.161C261.781 196.161 262.119 196.231 262.449 196.372L262.276 196.767C261.954 196.635 261.662 196.568 261.4 196.568C261.17 196.568 260.996 196.604 260.879 196.677C260.762 196.749 260.703 196.848 260.703 196.975C260.703 197.061 260.725 197.135 260.768 197.195C260.812 197.256 260.884 197.313 260.981 197.368C261.079 197.423 261.267 197.502 261.544 197.605C261.925 197.744 262.182 197.884 262.314 198.024C262.449 198.165 262.517 198.342 262.517 198.554ZM266.082 197.822C266.082 198.345 265.95 198.755 265.687 199.05C265.423 199.343 265.059 199.489 264.594 199.489C264.307 199.489 264.052 199.422 263.829 199.287C263.606 199.152 263.435 198.959 263.313 198.707C263.192 198.455 263.132 198.16 263.132 197.822C263.132 197.299 263.263 196.891 263.524 196.6C263.786 196.307 264.149 196.161 264.614 196.161C265.063 196.161 265.42 196.31 265.684 196.609C265.949 196.908 266.082 197.312 266.082 197.822ZM263.636 197.822C263.636 198.232 263.718 198.545 263.882 198.76C264.046 198.974 264.287 199.082 264.605 199.082C264.924 199.082 265.165 198.975 265.329 198.762C265.495 198.548 265.578 198.234 265.578 197.822C265.578 197.414 265.495 197.104 265.329 196.893C265.165 196.68 264.922 196.574 264.6 196.574C264.281 196.574 264.041 196.678 263.879 196.887C263.717 197.096 263.636 197.408 263.636 197.822ZM267.424 199.43H266.938V194.872H267.424V199.43ZM268.912 196.219V198.302C268.912 198.564 268.972 198.76 269.091 198.888C269.21 199.017 269.396 199.082 269.65 199.082C269.986 199.082 270.231 198.99 270.386 198.806C270.542 198.623 270.62 198.323 270.62 197.907V196.219H271.106V199.43H270.705L270.635 199H270.608C270.509 199.158 270.37 199.279 270.192 199.363C270.017 199.447 269.815 199.489 269.589 199.489C269.198 199.489 268.905 199.396 268.71 199.211C268.517 199.025 268.42 198.728 268.42 198.32V196.219H268.912ZM273.178 199.088C273.264 199.088 273.347 199.082 273.427 199.07C273.507 199.056 273.57 199.043 273.617 199.029V199.401C273.564 199.427 273.486 199.447 273.383 199.463C273.281 199.48 273.189 199.489 273.107 199.489C272.486 199.489 272.176 199.162 272.176 198.508V196.597H271.716V196.363L272.176 196.161L272.381 195.475H272.662V196.219H273.594V196.597H272.662V198.487C272.662 198.68 272.708 198.829 272.8 198.932C272.892 199.036 273.018 199.088 273.178 199.088ZM274.748 199.43H274.262V196.219H274.748V199.43ZM274.221 195.349C274.221 195.238 274.248 195.157 274.303 195.106C274.357 195.053 274.426 195.027 274.508 195.027C274.586 195.027 274.653 195.053 274.71 195.106C274.767 195.159 274.795 195.24 274.795 195.349C274.795 195.459 274.767 195.541 274.71 195.595C274.653 195.648 274.586 195.675 274.508 195.675C274.426 195.675 274.357 195.648 274.303 195.595C274.248 195.541 274.221 195.459 274.221 195.349ZM278.551 197.822C278.551 198.345 278.419 198.755 278.155 199.05C277.892 199.343 277.527 199.489 277.062 199.489C276.775 199.489 276.521 199.422 276.298 199.287C276.075 199.152 275.903 198.959 275.782 198.707C275.661 198.455 275.601 198.16 275.601 197.822C275.601 197.299 275.731 196.891 275.993 196.6C276.255 196.307 276.618 196.161 277.083 196.161C277.532 196.161 277.889 196.31 278.152 196.609C278.418 196.908 278.551 197.312 278.551 197.822ZM276.104 197.822C276.104 198.232 276.187 198.545 276.351 198.76C276.515 198.974 276.756 199.082 277.074 199.082C277.393 199.082 277.634 198.975 277.798 198.762C277.964 198.548 278.047 198.234 278.047 197.822C278.047 197.414 277.964 197.104 277.798 196.893C277.634 196.68 277.391 196.574 277.068 196.574C276.75 196.574 276.51 196.678 276.348 196.887C276.186 197.096 276.104 197.408 276.104 197.822ZM281.604 199.43V197.353C281.604 197.092 281.544 196.896 281.425 196.767C281.306 196.638 281.119 196.574 280.865 196.574C280.529 196.574 280.283 196.665 280.127 196.846C279.971 197.028 279.893 197.328 279.893 197.746V199.43H279.406V196.219H279.802L279.881 196.659H279.904C280.004 196.501 280.144 196.379 280.323 196.293C280.503 196.205 280.703 196.161 280.924 196.161C281.311 196.161 281.602 196.255 281.797 196.442C281.992 196.628 282.09 196.926 282.09 197.336V199.43H281.604ZM285.163 198.554C285.163 198.853 285.052 199.084 284.829 199.246C284.606 199.408 284.294 199.489 283.892 199.489C283.466 199.489 283.134 199.422 282.896 199.287V198.836C283.05 198.914 283.215 198.975 283.391 199.02C283.568 199.065 283.739 199.088 283.903 199.088C284.157 199.088 284.353 199.048 284.489 198.968C284.626 198.885 284.694 198.761 284.694 198.595C284.694 198.47 284.64 198.364 284.53 198.276C284.423 198.186 284.212 198.081 283.897 197.96C283.599 197.848 283.386 197.752 283.259 197.67C283.134 197.586 283.04 197.491 282.978 197.385C282.917 197.28 282.887 197.154 282.887 197.008C282.887 196.746 282.993 196.54 283.206 196.389C283.419 196.237 283.711 196.161 284.082 196.161C284.428 196.161 284.766 196.231 285.096 196.372L284.923 196.767C284.601 196.635 284.309 196.568 284.047 196.568C283.816 196.568 283.643 196.604 283.525 196.677C283.408 196.749 283.35 196.848 283.35 196.975C283.35 197.061 283.371 197.135 283.414 197.195C283.459 197.256 283.53 197.313 283.628 197.368C283.726 197.423 283.913 197.502 284.19 197.605C284.571 197.744 284.828 197.884 284.961 198.024C285.096 198.165 285.163 198.342 285.163 198.554ZM285.887 199.12C285.887 198.989 285.916 198.89 285.975 198.824C286.035 198.756 286.121 198.721 286.232 198.721C286.346 198.721 286.434 198.756 286.496 198.824C286.561 198.89 286.593 198.989 286.593 199.12C286.593 199.247 286.561 199.344 286.496 199.413C286.432 199.481 286.344 199.515 286.232 199.515C286.133 199.515 286.05 199.485 285.983 199.425C285.919 199.362 285.887 199.26 285.887 199.12ZM288.84 199.489C288.375 199.489 288.015 199.346 287.759 199.061C287.505 198.774 287.378 198.369 287.378 197.845C287.378 197.308 287.507 196.893 287.765 196.6C288.024 196.307 288.394 196.161 288.872 196.161C289.026 196.161 289.181 196.177 289.335 196.211C289.489 196.244 289.61 196.283 289.698 196.328L289.549 196.741C289.441 196.698 289.324 196.663 289.197 196.635C289.07 196.606 288.958 196.592 288.86 196.592C288.208 196.592 287.882 197.008 287.882 197.84C287.882 198.234 287.961 198.537 288.119 198.748C288.279 198.959 288.516 199.064 288.828 199.064C289.096 199.064 289.37 199.007 289.651 198.891V199.322C289.437 199.433 289.166 199.489 288.84 199.489ZM293.188 197.822C293.188 198.345 293.056 198.755 292.792 199.05C292.528 199.343 292.164 199.489 291.699 199.489C291.412 199.489 291.157 199.422 290.935 199.287C290.712 199.152 290.54 198.959 290.419 198.707C290.298 198.455 290.237 198.16 290.237 197.822C290.237 197.299 290.368 196.891 290.63 196.6C290.892 196.307 291.255 196.161 291.72 196.161C292.169 196.161 292.525 196.31 292.789 196.609C293.055 196.908 293.188 197.312 293.188 197.822ZM290.741 197.822C290.741 198.232 290.823 198.545 290.987 198.76C291.151 198.974 291.393 199.082 291.711 199.082C292.029 199.082 292.271 198.975 292.435 198.762C292.601 198.548 292.684 198.234 292.684 197.822C292.684 197.414 292.601 197.104 292.435 196.893C292.271 196.68 292.027 196.574 291.705 196.574C291.387 196.574 291.146 196.678 290.984 196.887C290.822 197.096 290.741 197.408 290.741 197.822ZM298.136 199.43V197.342C298.136 197.086 298.081 196.894 297.972 196.767C297.862 196.638 297.692 196.574 297.462 196.574C297.159 196.574 296.936 196.661 296.791 196.835C296.646 197.009 296.574 197.276 296.574 197.637V199.43H296.088V197.342C296.088 197.086 296.033 196.894 295.924 196.767C295.814 196.638 295.644 196.574 295.411 196.574C295.106 196.574 294.883 196.666 294.74 196.849C294.6 197.031 294.529 197.33 294.529 197.746V199.43H294.043V196.219H294.438L294.518 196.659H294.541C294.633 196.503 294.762 196.381 294.928 196.293C295.096 196.205 295.283 196.161 295.49 196.161C295.992 196.161 296.32 196.343 296.475 196.706H296.498C296.594 196.538 296.732 196.405 296.914 196.307C297.096 196.21 297.303 196.161 297.535 196.161C297.898 196.161 298.17 196.255 298.35 196.442C298.531 196.628 298.622 196.926 298.622 197.336V199.43H298.136Z" fill="#455A64"/>
<path d="M252.88 212.08L251.876 212.082L251.382 212.967L251 212.968L252.611 210.185L252.963 210.184L253.341 212.964L252.997 212.964L252.88 212.08ZM252.843 211.784L252.771 211.215C252.738 210.988 252.718 210.767 252.711 210.55C252.661 210.661 252.607 210.772 252.548 210.883C252.49 210.993 252.323 211.294 252.046 211.785L252.843 211.784Z" fill="#455A64"/>
<path d="M254.828 210.843C255.09 210.842 255.28 210.962 255.397 211.203L255.418 211.203C255.44 211.006 255.47 210.833 255.508 210.682L255.664 210.001L256 210L255.338 212.96L255.057 212.961L255.101 212.563L255.085 212.563C254.949 212.722 254.821 212.834 254.703 212.9C254.584 212.967 254.462 213 254.335 213C254.147 213 254.001 212.938 253.895 212.814C253.79 212.69 253.737 212.518 253.736 212.297C253.736 212.026 253.784 211.778 253.881 211.552C253.977 211.326 254.108 211.151 254.272 211.028C254.438 210.905 254.623 210.843 254.828 210.843ZM254.448 212.735C254.574 212.735 254.705 212.676 254.84 212.558C254.974 212.438 255.081 212.287 255.158 212.103C255.238 211.918 255.277 211.729 255.277 211.538C255.276 211.397 255.24 211.29 255.167 211.217C255.094 211.143 254.988 211.107 254.849 211.107C254.713 211.107 254.586 211.16 254.469 211.265C254.353 211.37 254.26 211.517 254.188 211.707C254.119 211.896 254.084 212.095 254.084 212.304C254.085 212.592 254.206 212.736 254.448 212.735Z" fill="#455A64"/>
</svg>
